<?xml version="1.0" encoding="UTF-8"?>
<svg id="Capa_2" data-name="Capa 2" xmlns="http://www.w3.org/2000/svg" fill="#fff" width="190" viewBox="0 0 546.94 115.7">
   <g id="Capa_4" data-name="Capa 4">
    <g>
      <path class="cls-1" d="m201.17,109.19c-.66-.24-1.41-.33-2.26-.28-.85.05-1.7.16-2.55.35-.85.18-1.6.28-2.26.28-2.26.09-4.53.12-6.79.07-2.27-.05-4.57-.21-6.93-.5-5.19-.47-10.3-1.25-15.34-2.33-5.04-1.08-10.11-2.29-15.2-3.61-3.3-.85-6.7-1.77-10.18-2.76-3.49-.99-7.02-1.91-10.6-2.76l4.38-8.06c5.09-9.15,10.41-18.01,15.98-26.59,5.56-8.58,11.36-17.16,17.4-25.74,2.92-4.15,5.87-8.25,8.84-12.3,2.97-4.06,6.01-8.11,9.12-12.16.38-.57.94-1.23,1.7-1.98.75-.76,1.46-1.58,2.12-2.48.65-.9,1.1-1.79,1.34-2.69.24-.9.03-1.72-.63-2.48-.76-.85-1.51-1.2-2.26-1.06-.76.14-1.49.55-2.19,1.2-.71.66-1.35,1.4-1.91,2.19-.57.8-1.04,1.44-1.42,1.91-11.13,13.86-21.31,28.26-30.55,43.21-9.24,14.94-17.72,30.33-25.45,46.17-5.47-1.13-10.92-1.79-16.34-1.98-5.42-.19-10.68.66-15.76,2.54-.57.19-.9.57-.99,1.13-.09.57.09,1.04.57,1.42.28.19.65.26,1.13.21.47-.05.92-.16,1.34-.35.42-.19.85-.38,1.27-.56.42-.19.78-.33,1.06-.42,1.03-.38,2.05-.61,3.04-.71.99-.1,2-.24,3.04-.42,2.36-.19,4.67-.17,6.93.07,2.27.24,4.57.59,6.93,1.06,1.04.18,2.07.4,3.11.63,1.04.24,2.07.5,3.11.78l-3.4,7.21c-.19.47-.21.85-.07,1.13.14.29.4.47.78.57.38.09.76.09,1.13,0,.38-.1.66-.38.85-.85.47-.85.94-1.7,1.42-2.54.47-.85.94-1.7,1.41-2.55.19-.38.38-.73.57-1.06.19-.33.37-.68.56-1.06,3.87,1.04,7.66,2.17,11.39,3.4,3.72,1.22,7.47,2.45,11.24,3.68,5.19,1.6,10.42,3.08,15.7,4.45,5.28,1.37,10.61,2.29,15.98,2.76,2.45.18,4.95.3,7.5.35,2.54.05,5.04-.17,7.49-.64.66-.09,1.41-.19,2.26-.28.85-.1,1.6-.26,2.27-.5.65-.24,1.15-.61,1.48-1.13.33-.52.35-1.3.07-2.33-.29-.85-.76-1.39-1.42-1.63Z"/>
      <path class="cls-1" d="m335.3,33.81c2.55-4.86,5.38-9.6,8.49-14.21,1.6-2.36,3.3-4.64,5.09-6.86,1.79-2.21,3.72-4.31,5.8-6.29.19-.19.5-.45.92-.78.42-.33.78-.71,1.06-1.14.28-.42.42-.82.42-1.2s-.28-.71-.85-.99c-.76-.47-1.84-.52-3.25-.14-1.41.38-2.5.66-3.25.85-5.47,1.23-10.6,3.14-15.41,5.73-4.81,2.59-9.36,5.59-13.65,8.98-4.29,3.4-8.35,7.1-12.16,11.1-3.82,4.01-7.47,8.04-10.96,12.09l-1.13,1.41.85-2.69c1.79-5.09,3.35-10.42,4.67-15.98.47-2.17.92-4.5,1.35-7,.42-2.5.21-4.83-.64-7-.66-1.7-1.72-2.71-3.18-3.04-1.46-.33-3.04-.33-4.74,0-1.7.33-3.35.87-4.95,1.63-1.61.76-2.88,1.42-3.82,1.98-4.72,2.55-9.12,5.57-13.22,9.05-4.1,3.49-7.99,7.23-11.67,11.24-3.68,4.01-7.17,8.18-10.47,12.51-3.3,4.34-6.51,8.63-9.62,12.87-2.74,3.96-5.47,7.99-8.2,12.09-2.73,4.1-5.35,8.3-7.85,12.59-2.5,4.29-4.76,8.7-6.79,13.22-2.03,4.53-3.75,9.1-5.16,13.72-.19.85.14,1.41.99,1.7.85.28,1.42,0,1.7-.85.47-.48.87-1.18,1.2-2.12.33-.94.63-1.74.92-2.4,1.03-2.08,2.1-4.12,3.18-6.15,1.08-2.03,2.24-4.08,3.46-6.15,5.19-8.68,10.65-16.93,16.4-24.75,6.23-8.58,12.71-16.95,19.45-25.1s14.02-15.77,21.85-22.84c1.88-1.61,3.82-3.18,5.8-4.74,1.98-1.55,4.15-2.76,6.51-3.61.47-.18,1.25-.47,2.33-.84,1.08-.38,1.91-.33,2.48.14.75.48,1.2,1.3,1.35,2.48.14,1.18.14,2.46,0,3.82-.14,1.37-.38,2.69-.71,3.96-.33,1.27-.54,2.24-.63,2.9-.66,2.46-1.42,4.86-2.26,7.21-.85,2.36-1.75,4.72-2.69,7.07-1.04,2.55-2.05,5.09-3.04,7.64-.99,2.55-2,5.04-3.04,7.49-3.77,5.09-7.26,10.14-10.47,15.14-.28.47-.8,1.29-1.55,2.47-.75,1.18-1.6,2.57-2.54,4.17-.95,1.61-1.87,3.28-2.76,5.02-.9,1.74-1.61,3.42-2.12,5.02-.52,1.61-.8,2.99-.85,4.17-.05,1.18.35,1.95,1.2,2.33.19.28.52.33.99.14.85-.09,1.67-.52,2.48-1.27.8-.76,1.56-1.67,2.27-2.76.71-1.08,1.34-2.15,1.91-3.19.56-1.03,1.04-1.88,1.41-2.54,1.14-1.98,2.24-3.96,3.32-5.94,1.08-1.98,2.14-4.01,3.18-6.08l3.82-7.64c2.83-3.68,5.75-7.28,8.77-10.82,3.02-3.54,6.13-7,9.33-10.4,3.58-3.76,7.26-7.4,11.03-10.88,3.77-3.49,7.64-6.88,11.6-10.18,3.21-2.73,6.6-5.35,10.18-7.85,3.58-2.5,7.45-4.31,11.6-5.44-5.66,5.66-10.75,11.86-15.27,18.6-4.53,6.74-8.53,13.6-12.02,20.58-4.06,8.01-7.31,16.45-9.76,25.31-1.04,4.05-1.86,8.27-2.48,12.65-.61,4.38-.4,8.65.64,12.8.09.28.24.73.42,1.35.19.61.42,1.2.71,1.76.28.57.61.97.99,1.2.37.24.85.07,1.41-.49.47-.57.57-1.4.28-2.48-.28-1.08-.47-1.96-.56-2.62-.19-2.54-.1-5.09.28-7.64.38-2.54.85-5.04,1.42-7.49,1.22-5.38,2.8-10.61,4.74-15.7,1.93-5.09,4.03-10.13,6.29-15.13,2.26-5,4.67-9.92,7.21-14.78Zm-62.08,49.85c-.66,1.32-1.46,2.46-2.4,3.4.37-.94.99-2.1,1.84-3.46.85-1.37,1.65-2.62,2.4-3.75-.56,1.23-1.18,2.5-1.84,3.82Z"/>
      <path class="cls-1" d="m434.72,51.56c1.13-.28,2.14-.92,3.04-1.91.9-.99,1.58-2,2.05-3.04.37-1.23.3-2.45-.21-3.68-.52-1.23-1.53-1.65-3.04-1.27-1.23.19-2.26.78-3.11,1.77-.85.99-1.51,2.05-1.98,3.18-.48,1.22-.45,2.42.07,3.61.52,1.18,1.58,1.63,3.19,1.34Z"/>
      <path class="cls-1" d="m81.39,34.45c4.29-.47,8.46-.19,12.52.85,1.57.57,2.6-2.23.99-2.69-13.57-4.96-32.6-1.98-42.14,9.54-3.56,13.64,25.06,6.66,32.03,5.09,15.97-4.41,43.25-18.17,39.39-37.97C115.21-3.54,95.17,0,81.74,2.06,55.05,7.31,31.94,23.29,15.56,44.63c-34.17,41.57-7.73,83.69,37.5,43.17-2.4,18.14,17.07,2.06,21.89-3.58-8.9,25.9,19.95,4.23,25.81-4.46,1.82-1.24,1.55-4.31-1.06-3.04-2.93,2.87-5.4,6.08-8.56,8.77-3.15,3.68-19.45,15.38-13.44,2.61.53-3.56,20.26-20.47,10.82-18.74-3.16-11.04-17.76-1.04-23.75,2.9-7.21,5.69-10.24,11.12-16.83,16.33-16.83,16.47-50.23,20.4-41.16-12.73C20.83,34.67,64.08-1.31,109.17,3.9c27.8,4.48,1.36,26.64-11.88,31.4-10.59,5.12-21.78,10.27-33.73,11.17-2.37-.07-10.28.67-8.27-3.25,6.66-6.53,17.22-7.08,26.09-8.77Zm-24.61,56.14c2.43-5.79,24.86-31.43,29.06-20.22-8.39,5.29-13.34,14.92-21.71,20.57-1.85,1.83-9.6,4.98-7.35-.35Z"/>
      <path class="cls-1" d="m209.24,76.45c-.38-.09-.76,0-1.13.29-.38.28-.73.59-1.06.92-.33.33-.63.71-.92,1.14-.28.42-.52.73-.71.92-1.89,1.98-3.84,3.91-5.87,5.8-2.03,1.89-4.13,3.63-6.29,5.23-.76.47-1.65,1.04-2.69,1.7-1.04.66-2.07,1.13-3.11,1.41-1.13.38-1.91.33-2.33-.14-.42-.47-.55-1.22-.35-2.26.18-1.04.63-2.14,1.34-3.32.71-1.18,1.49-2.33,2.33-3.46.85-1.13,1.68-2.17,2.48-3.11.8-.94,1.49-1.74,2.05-2.4.94-1.23,1.93-2.38,2.97-3.47,1.03-1.08,1.98-2.28,2.83-3.61.28-.37.61-.75.99-1.13.38-.37.24-.8-.42-1.27-.66-.47-1.46-.56-2.4-.28-.19-1.51-.71-2.69-1.56-3.53-1.04-.85-2.26-1.29-3.68-1.35-1.41-.05-2.85.12-4.31.5-1.46.38-2.9.9-4.31,1.55-1.42.66-2.59,1.23-3.53,1.7-1.98,1.04-4.1,2.38-6.36,4.03-2.27,1.65-4.32,3.51-6.15,5.59-1.84,2.08-3.32,4.29-4.46,6.64-1.13,2.36-1.55,4.81-1.27,7.36.28,2.55,1.18,3.96,2.69,4.24,1.51.29,3.23,0,5.17-.84,1.93-.85,3.79-1.96,5.59-3.32,1.79-1.37,3.06-2.38,3.82-3.04l4.81-4.66c-.85,2.36-1.41,4.53-1.7,6.51-.37,2.64,0,4.31,1.14,5.02,1.13.71,2.52.92,4.17.64,1.65-.29,3.37-.92,5.16-1.91,1.79-.99,3.21-1.86,4.25-2.62,2.17-1.6,4.24-3.35,6.22-5.23,1.98-1.88,3.91-3.87,5.8-5.94.09-.19.35-.5.78-.92.42-.42.75-.85.99-1.27s.33-.82.29-1.2c-.05-.37-.45-.65-1.2-.85Zm-26.16,4.67c-1.42,1.6-2.88,3.06-4.38,4.38-.76.76-1.68,1.63-2.76,2.61-1.08.99-2.22,1.93-3.4,2.83-1.18.9-2.4,1.61-3.68,2.12-1.27.52-2.48.59-3.61.21-.75-.37-.78-1.27-.07-2.69.71-1.41,1.7-2.95,2.97-4.59,1.27-1.65,2.57-3.23,3.89-4.74,1.32-1.5,2.27-2.54,2.83-3.11,3.11-3.58,6.65-6.51,10.61-8.77.66-.37,1.51-.73,2.55-1.06,1.03-.33,2.03-.54,2.97-.64.94-.09,1.74.05,2.4.42.66.38.94,1.13.85,2.27-1.32.56-2.52,1.37-3.61,2.4-1.08,1.04-2.14,2.21-3.18,3.53-1.51,1.6-2.97,3.21-4.38,4.81Z"/>
      <path class="cls-1" d="m545.73,76.45c-.38-.09-.76,0-1.13.29-.38.28-.73.59-1.06.92-.33.33-.63.71-.92,1.14-.28.42-.52.73-.71.92-1.89,1.98-3.84,3.91-5.87,5.8-2.03,1.89-4.13,3.63-6.29,5.23-.76.47-1.65,1.04-2.69,1.7-1.04.66-2.07,1.13-3.11,1.41-1.13.38-1.91.33-2.33-.14-.42-.47-.55-1.22-.35-2.26.18-1.04.63-2.14,1.34-3.32.71-1.18,1.49-2.33,2.33-3.46.85-1.13,1.68-2.17,2.48-3.11.8-.94,1.49-1.74,2.05-2.4.94-1.23,1.93-2.38,2.97-3.47,1.03-1.08,1.98-2.28,2.83-3.61.28-.37.61-.75.99-1.13.38-.37.23-.8-.42-1.27-.66-.47-1.46-.56-2.4-.28-.19-1.51-.71-2.69-1.55-3.53-1.04-.85-2.26-1.29-3.68-1.35-1.41-.05-2.85.12-4.31.5-1.46.38-2.9.9-4.31,1.55-1.42.66-2.59,1.23-3.53,1.7-1.98,1.04-4.11,2.44-6.26,4.23-1.68,1.4-4.3,3.78-5.31,4.8-.9.91-6.82,6.8-10.49,9.92-.76.56-1.63,1.29-2.62,2.19-.99.9-2.05,1.74-3.18,2.55-1.13.8-2.31,1.39-3.53,1.76-1.23.38-2.36.38-3.4,0-.19-.09.05-.71.71-1.84.66-1.13,1.51-2.55,2.55-4.24,1.04-1.7,2.19-3.54,3.46-5.52,1.27-1.98,2.52-3.86,3.75-5.66,1.22-1.79,2.31-3.35,3.25-4.66.94-1.32,1.6-2.17,1.98-2.55.47-.47.64-.99.5-1.55-.14-.56-.54-.94-1.2-1.13-.76-.19-1.63-.12-2.62.21-.99.33-1.77.64-2.33.92-1.89,1.04-3.7,2.22-5.44,3.53-1.75,1.32-3.42,2.64-5.02,3.96-1.89,1.6-3.72,3.25-5.51,4.95-1.79,1.7-3.63,3.44-5.51,5.23-.85.95-1.72,1.86-2.62,2.76-.9.9-1.86,1.77-2.9,2.62l-1.84,1.84,1.84-2.12c.85-1.04,1.72-2.01,2.62-2.9s1.82-1.86,2.76-2.9c1.6-1.79,3.2-3.61,4.81-5.44,1.6-1.84,3.02-3.84,4.25-6.02.47-.75.84-1.62,1.13-2.61.28-.99.33-2,.14-3.04-.19-1.42-.63-2.27-1.34-2.55-.71-.28-1.53-.28-2.48,0-.95.28-1.89.73-2.83,1.35-.95.61-1.7,1.1-2.26,1.48-1.7,1.23-3.32,2.52-4.88,3.89-1.55,1.37-3.04,2.81-4.46,4.31-.19.19-.56.64-1.12,1.25-.23.25-.79.87-.93,1.01-.71.76-1.44,1.37-2.19,1.84-.85.57-1.76,1.06-2.76,1.49-.99.42-2,.63-3.04.63-.48,0-.88-.02-1.2-.07-.33-.05-.69-.12-1.06-.21,1.04-1.42,2.17-3.06,3.4-4.95,1.22-1.89,2.17-3.68,2.83-5.38.66-1.69.9-3.2.71-4.52-.19-1.32-1.13-2.12-2.83-2.4-.47-.1-.92-.1-1.35,0-.42.09-.87.24-1.34.42-.38-.38-.71-.61-.99-.71-1.04-.37-2.1-.49-3.18-.35-1.08.14-2.1.45-3.04.92-2.46,1.04-4.72,2.48-6.79,4.31-2.08,1.84-3.96,3.75-5.66,5.73-.59.7-1.23,1.58-1.92,2.61-.18.23-.35.45-.49.65-1.89,2.17-3.89,4.22-6.01,6.15-2.12,1.93-4.31,3.7-6.57,5.3-.57.48-1.35,1.04-2.34,1.7-.99.66-2,1.25-3.04,1.77-1.04.52-2.08.87-3.11,1.06-1.04.19-1.93,0-2.69-.57-.47-.84-.54-1.88-.21-3.11.33-1.22.87-2.42,1.63-3.61.75-1.18,1.55-2.31,2.4-3.39.85-1.08,1.55-1.96,2.12-2.62,1.98-2.55,4.1-5.09,6.36-7.64.28-.28.66-.66,1.13-1.13.47-.47.94-.99,1.41-1.55.47-.57.83-1.11,1.06-1.63s.26-1.01.07-1.48c-.29-.57-.76-1.11-1.42-1.63-.66-.52-1.32-.78-1.98-.78-1.61.09-3.16.8-4.67,2.12-1.51,1.32-2.78,2.5-3.82,3.53-.19.19-.73.73-1.63,1.63-.9.9-1.76,1.87-2.61,2.9-.71.87-1.21,1.65-1.53,2.35-.15.16-.3.33-.45.48-2.08,2.17-4.17,4.29-6.3,6.36-2.12,2.08-4.36,4.06-6.72,5.94-.57.47-1.32,1.1-2.26,1.91-.95.8-1.96,1.53-3.04,2.19-1.08.66-2.14,1.11-3.18,1.35-1.04.24-1.98.07-2.83-.5-.47-.85-.38-1.84.28-2.97.66-1.14,1.51-2.27,2.55-3.4,1.04-1.13,2.1-2.17,3.18-3.11s1.91-1.65,2.48-2.12c.66-.66,1.56-1.53,2.69-2.61,1.14-1.08,2.14-2.27,3.04-3.54.9-1.27,1.5-2.57,1.84-3.89.33-1.32.07-2.55-.78-3.68-.85-1.03-2-1.48-3.46-1.34-1.46.14-2.76.31-3.89.49-.75.19-1.55.29-2.4.29.57-.57,1.39-1.42,2.48-2.55s2.07-2.31,2.97-3.53c.9-1.23,1.46-2.38,1.7-3.47.23-1.08-.21-1.76-1.35-2.05-1.04-.37-2.17-.28-3.4.29-1.22.56-2.35,1.34-3.39,2.33-1.04.99-1.98,2.05-2.83,3.18-.85,1.13-1.42,2.12-1.7,2.97-.76,1.69-.56,3.11.57,4.24-1.23,1.23-2.43,2.43-3.61,3.61-1.18,1.18-2.32,2.42-3.35,3.46-.16.16-.24.31-.3.47-.48.55-.97,1.12-1.09,1.24-1.89,1.98-3.84,3.91-5.87,5.8-2.03,1.89-4.13,3.63-6.29,5.23-.76.47-1.65,1.04-2.69,1.7-1.04.66-2.07,1.13-3.11,1.41-1.13.38-1.91.33-2.33-.14-.42-.47-.55-1.22-.35-2.26.18-1.04.63-2.14,1.34-3.32.71-1.18,1.49-2.33,2.33-3.46.85-1.13,1.68-2.17,2.48-3.11.8-.94,1.49-1.74,2.05-2.4.94-1.23,1.93-2.38,2.97-3.47,1.03-1.08,1.98-2.28,2.83-3.61.28-.37.61-.75.99-1.13.38-.37.23-.8-.42-1.27-.66-.47-1.46-.56-2.4-.28-.19-1.51-.71-2.69-1.55-3.53-1.04-.85-2.26-1.29-3.68-1.35-1.41-.05-2.85.12-4.31.5-1.46.38-2.9.9-4.31,1.55-1.42.66-2.59,1.23-3.53,1.7-1.98,1.04-4.1,2.38-6.36,4.03-2.27,1.65-4.32,3.51-6.15,5.59-1.84,2.08-3.32,4.29-4.46,6.64-1.13,2.36-1.56,4.81-1.27,7.36.28,2.55,1.18,3.96,2.69,4.24,1.51.29,3.23,0,5.17-.84,1.93-.85,3.79-1.96,5.59-3.32,1.79-1.37,3.06-2.38,3.82-3.04l4.81-4.66c-.85,2.36-1.41,4.53-1.7,6.51-.37,2.64,0,4.31,1.14,5.02,1.13.71,2.52.92,4.17.64,1.65-.29,3.37-.92,5.16-1.91,1.79-.99,3.21-1.86,4.25-2.62,2.17-1.6,4.24-3.35,6.22-5.23,1.98-1.88,3.91-3.87,5.8-5.94.09-.19.35-.5.78-.92.3-.3.54-.6.74-.9.88-.97,1.83-2,2.87-3.13,1.13-1.22,2.27-2.4,3.4-3.53.28.1.75.14,1.41.14.19,0,.61-.03,1.27-.07.66-.05,1.39-.09,2.19-.14.8-.05,1.58-.07,2.33-.07s1.27.05,1.55.14c-.19.1-.5.33-.92.71-.42.38-.82.76-1.2,1.13-.38.38-.9.9-1.55,1.55l-5.51,5.66c-.76.85-1.53,1.84-2.33,2.97-.8,1.13-1.53,2.33-2.19,3.61s-1.13,2.57-1.41,3.89c-.29,1.32-.24,2.6.14,3.82.47,2.17,1.55,3.25,3.25,3.25s3.53-.45,5.51-1.35c1.98-.9,3.87-2.03,5.66-3.39,1.79-1.37,3.06-2.34,3.82-2.9,2.17-1.89,4.22-3.8,6.15-5.73,1.43-1.44,2.84-2.9,4.25-4.36-1.39,2.08-2.51,4.26-3.34,6.55-.37,1.04-.56,2.12-.56,3.25s.19,2.17.56,3.12c.38.94.95,1.74,1.7,2.4.76.65,1.79,1.03,3.11,1.13,1.23.09,2.45-.05,3.68-.42,1.23-.38,2.43-.9,3.61-1.55,1.18-.66,2.31-1.39,3.4-2.19,1.08-.8,2.05-1.53,2.9-2.19,2.07-1.54,4.04-3.19,5.92-4.91-.62,2.05-.79,4-.48,5.83.33,1.93,1.63,3.38,3.89,4.32,1.7.75,3.44.78,5.23.07,1.79-.71,3.51-1.72,5.16-3.04,1.65-1.32,3.18-2.76,4.59-4.31,1.42-1.55,2.59-2.85,3.54-3.89l.85-.99c0,.1.09.14.28.14,1.88.85,3.82,1.01,5.8.49,1.98-.52,3.77-1.34,5.38-2.47.57-.38,1.34-1.06,2.33-2.05.15-.15.29-.29.58-.56.29-.27,1.05-.97,1.9-1.91.85-.94,1.51-1.65,1.98-2.12.76-.75,1.56-1.5,2.4-2.26.85-.76,1.74-1.51,2.69-2.27.56-.47,1.15-.94,1.76-1.41.61-.47,1.29-.9,2.05-1.27-.28.28-.54.64-.78,1.06-.23.42-.45.83-.63,1.2-1.04,1.7-2.15,3.38-3.33,5.02-1.18,1.65-2.29,3.28-3.32,4.88-.28.28-.76.87-1.41,1.76-.66.9-1.4,1.93-2.19,3.12-.8,1.18-1.58,2.4-2.33,3.68-.76,1.27-1.35,2.45-1.77,3.53-.42,1.08-.59,2.01-.49,2.76.09.76.61,1.18,1.56,1.27.85,0,1.72-.31,2.61-.92.9-.61,1.77-1.35,2.62-2.19.85-.84,1.65-1.69,2.4-2.54.75-.85,1.41-1.55,1.98-2.12,1.6-1.41,3.18-2.85,4.74-4.31s3.13-2.9,4.74-4.31c1.13-1.04,2.26-2.05,3.4-3.04,1.13-.99,2.35-1.95,3.68-2.9-1.04,1.23-1.98,2.48-2.83,3.75-.85,1.27-1.65,2.57-2.4,3.89-.38.76-.85,1.75-1.42,2.97-.57,1.23-1.01,2.52-1.35,3.89-.33,1.37-.47,2.66-.42,3.89.05,1.22.5,2.21,1.35,2.97.85.75,1.84,1.11,2.97,1.06,1.13-.05,2.26-.29,3.39-.71,1.13-.42,2.19-.97,3.18-1.63.99-.65,1.86-1.22,2.62-1.69,2.17-1.61,4.24-3.32,6.22-5.17.14-.13.28-.26.42-.4-.36,1.49-.45,3.01-.28,4.57.28,2.55,1.18,3.96,2.69,4.24,1.51.29,3.23,0,5.17-.84,1.93-.85,3.79-1.96,5.59-3.32,1.79-1.37,3.06-2.38,3.82-3.04l4.81-4.66c-.85,2.36-1.41,4.53-1.7,6.51-.37,2.64,0,4.31,1.14,5.02,1.13.71,2.52.92,4.17.64,1.65-.29,3.37-.92,5.16-1.91,1.79-.99,3.21-1.86,4.25-2.62,2.17-1.6,4.24-3.35,6.22-5.23,1.98-1.88,3.91-3.87,5.8-5.94.09-.19.35-.5.78-.92.42-.42.75-.85.99-1.27s.33-.82.29-1.2c-.05-.37-.45-.65-1.2-.85Zm-197.28,4.67c-1.42,1.6-2.88,3.06-4.38,4.38-.76.76-1.68,1.63-2.76,2.61-1.08.99-2.22,1.93-3.4,2.83-1.18.9-2.4,1.61-3.68,2.12-1.27.52-2.48.59-3.61.21-.75-.37-.78-1.27-.07-2.69.71-1.41,1.7-2.95,2.97-4.59,1.27-1.65,2.57-3.23,3.89-4.74,1.32-1.5,2.27-2.54,2.83-3.11,3.12-3.58,6.65-6.51,10.61-8.77.66-.37,1.51-.73,2.55-1.06,1.03-.33,2.03-.54,2.97-.64.94-.09,1.74.05,2.4.42.66.38.94,1.13.85,2.27-1.32.56-2.52,1.37-3.61,2.4-1.08,1.04-2.14,2.21-3.18,3.53-1.51,1.6-2.97,3.21-4.38,4.81Zm32.81-12.16c-.19-.37-.19-.8,0-1.27.47-1.03,1.32-2.28,2.55-3.74,1.22-1.46,2.5-2.43,3.82-2.9-.85,1.32-1.82,2.64-2.9,3.96s-2.24,2.64-3.47,3.96Zm62.58,9.54c.14,1.65.73,3.09,1.77,4.32-.95,1.13-2.08,2.45-3.4,3.96s-2.71,2.83-4.17,3.96c-1.46,1.13-2.9,1.93-4.32,2.4-1.41.47-2.59.28-3.53-.57-.28-.09-.4-.47-.35-1.13.05-.66.14-1.37.28-2.12.14-.75.33-1.46.57-2.12s.4-1.14.5-1.42c.65-1.6,1.46-3.18,2.4-4.74.94-1.55,1.98-2.99,3.11-4.31.57-.66,1.25-1.49,2.05-2.48.8-.99,1.7-1.98,2.69-2.97.99-.99,2.03-1.84,3.11-2.54,1.08-.71,2.19-1.16,3.32-1.35-.85.94-1.55,2.01-2.12,3.18-.56,1.18-.99,2.19-1.27,3.04-.57,1.61-.78,3.23-.64,4.88Zm3.61,1.91c-.56-.76-.85-1.72-.85-2.9s.24-2.38.71-3.61c.09-.19.42-.71.99-1.55.57-.85,1.2-1.7,1.91-2.55.71-.85,1.37-1.53,1.98-2.05.61-.52,1.01-.5,1.2.07.29.85.24,1.86-.14,3.04-.38,1.18-.9,2.36-1.55,3.53-.66,1.18-1.39,2.31-2.19,3.4-.8,1.08-1.48,1.96-2.05,2.62Zm72.12.71c-1.42,1.6-2.88,3.06-4.38,4.38-.76.76-1.68,1.63-2.76,2.61-1.08.99-2.22,1.93-3.4,2.83-1.18.9-2.4,1.61-3.68,2.12-1.27.52-2.48.59-3.61.21-.75-.37-.78-1.27-.07-2.69.71-1.41,1.7-2.95,2.97-4.59,1.27-1.65,2.57-3.23,3.89-4.74,1.32-1.5,2.27-2.54,2.83-3.11,3.12-3.58,6.65-6.51,10.61-8.77.66-.37,1.51-.73,2.55-1.06,1.03-.33,2.03-.54,2.97-.64.94-.09,1.74.05,2.4.42.66.38.94,1.13.85,2.27-1.32.56-2.52,1.37-3.61,2.4-1.08,1.04-2.14,2.21-3.18,3.53-1.51,1.6-2.97,3.21-4.38,4.81Z"/>
    </g>
  </g>
</svg>